<?xml version="1.0" standalone="no"?>
<!DOCTYPE svg PUBLIC "-//W3C//DTD SVG 20010904//EN"
 "http://www.w3.org/TR/2001/REC-SVG-20010904/DTD/svg10.dtd">
<svg version="1.0" xmlns="http://www.w3.org/2000/svg"
 width="920.000000pt" height="920.000000pt" viewBox="0 0 920.000000 920.000000"
 preserveAspectRatio="xMidYMid meet">

<g transform="translate(0.000000,920.000000) scale(0.100000,-0.100000)"
fill="#000000" stroke="none">
<path d="M4405 7583 c-234 -18 -395 -44 -585 -94 -763 -201 -1419 -707 -1820
-1403 -190 -329 -313 -701 -367 -1103 -24 -184 -24 -591 1 -768 95 -682 373
-1244 855 -1725 258 -258 493 -428 796 -575 313 -152 625 -245 965 -287 137
-17 552 -17 695 1 691 82 1283 369 1770 856 487 487 772 1076 857 1770 19 162
16 577 -6 735 -58 421 -207 841 -417 1175 -238 381 -595 740 -969 975 -390
245 -858 400 -1323 439 -117 10 -354 12 -452 4z m407 -467 c294 -17 603 -100
897 -242 267 -128 470 -273 681 -484 211 -211 356 -414 484 -681 111 -230 183
-458 221 -699 22 -138 31 -513 16 -663 -61 -599 -288 -1095 -691 -1511 -259
-267 -548 -460 -901 -602 -74 -30 -141 -54 -147 -54 -8 0 -12 146 -14 518 -4
510 -4 518 -27 587 -13 39 -31 86 -41 106 -30 57 -97 136 -150 176 -27 20 -47
40 -44 45 3 4 25 8 49 8 63 0 317 45 421 74 375 105 604 306 709 620 80 240
93 588 29 834 -31 122 -105 276 -178 369 l-55 72 15 78 c48 250 35 388 -58
602 l-23 53 -100 -5 c-181 -10 -354 -76 -569 -217 l-110 -72 -155 27 c-130 23
-196 28 -396 32 -253 5 -367 -2 -590 -38 l-130 -22 -115 81 c-230 161 -393
226 -595 234 l-70 3 -37 -75 c-60 -120 -73 -190 -72 -375 0 -131 4 -171 20
-220 l20 -60 -56 -76 c-171 -230 -245 -546 -211 -889 57 -563 337 -844 966
-969 83 -16 181 -33 220 -37 68 -7 69 -7 45 -23 -85 -55 -167 -166 -207 -279
-10 -28 -25 -54 -33 -56 -79 -23 -203 -40 -290 -40 -100 -1 -108 1 -172 33
-122 61 -199 135 -330 320 -88 124 -208 191 -342 191 -75 0 -110 -16 -114 -52
-3 -22 4 -32 40 -54 24 -14 59 -41 78 -58 19 -18 55 -47 79 -64 55 -39 65 -53
157 -234 41 -81 94 -173 118 -206 83 -112 210 -194 352 -228 55 -13 102 -15
229 -11 88 3 170 9 183 12 l22 7 0 -366 0 -366 -92 34 c-357 130 -645 310
-917 571 -400 384 -658 887 -748 1456 -27 173 -25 585 5 766 92 564 331 1021
736 1411 455 437 1060 692 1696 715 72 2 161 0 292 -7z"/>
</g>
</svg>
